<svg width="40" height="40" viewBox="0 0 40 40" fill="#7572D5" xmlns="http://www.w3.org/2000/svg">
    
      <g id="code">
        <path fill-rule="evenodd" clip-rule="evenodd" d="M18.3125 42.0645L27.2623 6.6875L31.4375 7.87241L22.4878 43.3125L18.3125 42.0645Z" fill="#7572D5"/>
<path fill-rule="evenodd" clip-rule="evenodd" d="M13.5025 12.6875L16.5625 15.9278L7.99501 25.0001L16.5625 34.0721L13.5025 37.3125L1.875 25.0001L13.5025 12.6875Z" fill="#7572D5"/>
<path fill-rule="evenodd" clip-rule="evenodd" d="M36.4976 12.6875L33.4375 15.9278L42.0051 25.0001L33.4375 34.0721L36.4976 37.3125L48.125 25.0001L36.4976 12.6875Z" fill="#7572D5"/>
       </g>

       <g id="figma">
          <path id="Vector" d="M17.7083 4.16663C14.2565 4.16663 11.4583 6.96486 11.4583 10.4166C11.4583 13.8684 14.2565 16.6666 17.7083 16.6666H32.2916C35.7435 16.6666 38.5416 13.8684 38.5416 10.4166C38.5416 6.96486 35.7435 4.16663 32.2916 4.16663H17.7083Z" fill="#7572D5"/>
          <path id="Vector_2" d="M32.2917 18.75C28.8398 18.75 26.0417 21.5481 26.0417 25C26.0417 28.4519 28.8398 31.25 32.2917 31.25C35.7436 31.25 38.5417 28.4519 38.5417 25C38.5417 21.5481 35.7436 18.75 32.2917 18.75Z" fill="#7572D5"/>
          <path id="Vector_3" d="M11.4583 25C11.4583 21.5481 14.2565 18.75 17.7083 18.75H23.9583V31.25H17.7083C14.2565 31.25 11.4583 28.4519 11.4583 25Z" fill="#7572D5"/>
          <path id="Vector_4" d="M17.7083 33.3334C14.2565 33.3334 11.4583 36.1315 11.4583 39.5834C11.4583 43.0352 14.2565 45.8334 17.7083 45.8334C21.1602 45.8334 23.9583 43.0352 23.9583 39.5834V33.3334H17.7083Z" fill="#7572D5"/>
       </g>
        <g id="react">
             <path id="Vector" d="M45.8125 21C45.8125 18.0833 42.6875 15.375 37.4792 13.5L36.5417 13.1875V12.7708C37.6875 7.04164 36.8542 2.7708 34.25 1.2083C31.6458 -0.354197 27.7917 1.10414 23.625 4.74997L23 5.37497L22.7917 5.16664H22.5833C18.3125 1.2083 14.1458 -0.145864 11.5417 1.31247C8.9375 2.7708 8.20833 6.8333 9.25 12.1458C9.35958 12.4838 9.4295 12.8333 9.45833 13.1875L8.3125 13.6041C3.20833 15.375 0.1875 18.0833 0.1875 21C0.1875 23.9166 3.52083 26.8333 8.72917 28.7083L9.45833 28.9166C9.32964 29.2854 9.25935 29.672 9.25 30.0625C8.20833 35.2708 9.14583 39.2291 11.5417 40.6875C13.9375 42.1458 18.3125 40.7916 22.4792 37.1458L23.1042 36.625L23.9375 37.4583C26.8542 39.9583 29.7708 41.3125 32.0625 41.3125C32.8708 41.3309 33.6671 41.1137 34.3542 40.6875C36.9583 39.2291 37.8958 34.9583 36.75 29.5416V29.3333C36.705 29.1619 36.6702 28.988 36.6458 28.8125H36.9583C42.4792 26.8333 45.8125 24.0208 45.8125 21ZM42.7917 21C42.7917 22.25 40.5 24.4375 36.0208 25.8958H35.8125C35.2664 24.2202 34.6051 22.5843 33.8333 21C34.5625 19.3333 35.1875 17.6666 35.7083 16.1041L36.5417 16.3125C40.7083 17.7708 42.7917 19.75 42.7917 21ZM25.9167 35.1666L25.0833 34.5416C26.2761 33.2201 27.3891 31.8287 28.4167 30.375L33.7292 29.5416C33.8333 29.75 33.8333 29.9583 33.9375 30.0625C34.3087 31.9492 34.379 33.8829 34.1458 35.7916C33.9995 36.7045 33.5608 37.5452 32.8958 38.1875C31.8542 38.8125 29.0417 37.9791 25.9167 35.1666ZM24.5625 30.5833L23.1042 32.4583L21.4375 30.5833H24.5625ZM10.2917 16C10.8152 17.7174 11.4771 19.3895 12.2708 21C11.4765 22.646 10.8146 24.3528 10.2917 26.1041L9.66667 25.8958C7.84256 25.3201 6.1454 24.4008 4.66667 23.1875C4.28377 22.9455 3.95605 22.6257 3.7048 22.2488C3.45356 21.872 3.2844 21.4465 3.20833 21C3.20833 19.75 5.29167 17.7708 9.25 16.4166L10.2917 16ZM21.4375 11.4166L23 9.6458L24.5625 11.4166H21.4375ZM32.8958 3.81247C34.0417 4.43747 34.6667 7.56247 33.7292 12.1458C33.734 12.2022 33.7272 12.2591 33.7093 12.3128C33.6914 12.3665 33.6627 12.416 33.625 12.4583L28.4167 11.625C27.3891 10.1712 26.2761 8.77988 25.0833 7.4583L25.7083 6.93747C29.0417 4.0208 31.75 3.18747 32.8958 3.81247ZM15.5 14.8541L14.6667 16.2083L13.9375 17.5625C13.625 16.8333 13.4167 16.1041 13.1042 15.2708L15.5 14.8541ZM13.1042 26.7291C13.4167 26 13.625 25.2708 13.9375 24.4375L14.6667 25.7916L15.5 27.1458L13.1042 26.7291ZM30.5 21C29.9699 22.142 29.3788 23.2548 28.7292 24.3333C28.1042 25.4791 27.375 26.5208 26.75 27.5625H19.25C18.5208 26.4166 17.7917 25.375 17.2708 24.3333C16.6161 23.2577 16.0248 22.1447 15.5 21C16.0054 19.8458 16.5974 18.7315 17.2708 17.6666C17.8693 16.5874 18.5301 15.544 19.25 14.5416C21.7457 14.3334 24.2543 14.3334 26.75 14.5416C27.4792 15.5833 28.1042 16.625 28.7292 17.6666C29.4026 18.7315 29.9946 19.8458 30.5 21ZM31.3333 16.2083L30.5 14.8541L32.8958 15.375C32.6639 16.1208 32.3856 16.8514 32.0625 17.5625L31.3333 16.2083ZM30.5 27.1458L31.3333 25.7916L32.0625 24.3333L33 26.7291L30.5 27.1458ZM20.8125 7.35414H20.9167L17.5833 11.5208L12.375 12.3541C12.2708 12.0416 12.2708 11.8333 12.1667 11.5208C11.3333 7.24997 11.9583 4.3333 13 3.81247C13.2766 3.63082 13.61 3.55672 13.9375 3.60414C15.3958 3.60414 17.8958 4.6458 20.7083 7.1458L20.8125 7.35414ZM12.1667 30.5833C12.1857 30.2617 12.256 29.9452 12.375 29.6458L17.6875 30.375C18.689 31.8481 19.8034 33.2412 21.0208 34.5416L20.8125 34.75L20.6042 34.9583C19.184 36.2738 17.5211 37.2999 15.7083 37.9791C15.3107 38.1874 14.875 38.3133 14.4275 38.3491C13.98 38.3849 13.5299 38.3299 13.1042 38.1875C11.9583 37.5625 11.3333 34.75 12.1667 30.5833Z" fill="#7572D5"/>
             <path id="Vector_2" d="M23 16.4166C22.0894 16.3959 21.1932 16.647 20.4259 17.1379C19.6586 17.6287 19.0549 18.3371 18.692 19.1726C18.3291 20.008 18.2233 20.9327 18.3882 21.8285C18.5532 22.7243 18.9812 23.5507 19.6179 24.2022C20.2545 24.8536 21.0709 25.3006 21.9627 25.4861C22.8545 25.6715 23.7813 25.587 24.6249 25.2434C25.4685 24.8998 26.1905 24.3126 26.6989 23.5568C27.2073 22.801 27.4789 21.9108 27.4792 20.9999C27.4795 19.8022 27.0109 18.6519 26.1738 17.7953C25.3366 16.9387 24.1974 16.4438 23 16.4166Z" fill="#7572D5"/>
       </g>

       <g id='vk'>
             <path d="M25.1696 20.9941C24.8038 20.5391 24.3881 20.1314 23.9861 19.737C23.8432 19.5968 23.6954 19.4518 23.5529 19.3076C23.1439 18.8932 23.129 18.7375 23.4529 18.2668C23.6769 17.9424 23.9145 17.6175 24.1442 17.3033C24.3526 17.0183 24.568 16.7235 24.7746 16.4278L24.817 16.367C25.2117 15.801 25.6199 15.2158 25.8372 14.5099C25.8936 14.3236 25.9528 14.0495 25.8174 13.8204C25.682 13.5914 25.4195 13.5215 25.2337 13.4889C25.1418 13.4727 25.0506 13.4705 24.9659 13.4705L22.3809 13.4686L22.3595 13.4684C21.9687 13.4684 21.7053 13.6593 21.5544 14.0519C21.4103 14.4271 21.252 14.8267 21.0714 15.2065C20.7119 15.963 20.2554 16.8342 19.5948 17.5609L19.5669 17.5918C19.4889 17.6787 19.4005 17.777 19.3359 17.777C19.326 17.777 19.3152 17.7751 19.303 17.7711C19.1662 17.7159 19.0744 17.3726 19.0785 17.213C19.0786 17.2108 19.0786 17.2086 19.0786 17.2064L19.0768 14.1105C19.0768 14.0998 19.0761 14.0891 19.0747 14.0785C19.009 13.5752 18.8633 13.2619 18.3129 13.1503C18.2983 13.1472 18.2834 13.1458 18.2685 13.1458H15.5806C15.1427 13.1458 14.9014 13.3302 14.6746 13.6062C14.6133 13.68 14.4859 13.8336 14.5491 14.02C14.6132 14.2091 14.8212 14.2495 14.8889 14.2627C15.2252 14.329 15.4148 14.5421 15.4685 14.9145C15.5622 15.5612 15.5737 16.2514 15.5047 17.0868C15.4855 17.3189 15.4474 17.4982 15.3847 17.6514C15.3701 17.6872 15.3185 17.8038 15.2658 17.8039C15.2491 17.8039 15.2007 17.7971 15.1125 17.7341C14.904 17.5861 14.7514 17.3749 14.5736 17.114C13.9685 16.228 13.4607 15.2519 13.021 14.1294C12.8579 13.7161 12.5533 13.4848 12.1629 13.478C11.7339 13.4712 11.345 13.468 10.9741 13.468C10.5689 13.468 10.1931 13.4719 9.82625 13.4798C9.51217 13.4855 9.29492 13.5831 9.18061 13.77C9.06611 13.957 9.07356 14.2026 9.20276 14.5C10.237 16.8825 11.1748 18.6149 12.2434 20.1171C12.9923 21.1683 13.7433 21.8959 14.6069 22.4068C15.5166 22.9461 16.5362 23.2083 17.7237 23.2083C17.8583 23.2083 17.9975 23.2048 18.1379 23.198C18.8279 23.1632 19.0839 22.9044 19.1163 22.2082C19.1317 21.8525 19.1692 21.4793 19.338 21.1611C19.4445 20.9606 19.5439 20.9606 19.5765 20.9606C19.6394 20.9606 19.7174 20.9906 19.8011 21.0468C19.9513 21.1484 20.0801 21.2845 20.1857 21.4034C20.285 21.5163 20.3833 21.6304 20.4817 21.7446C20.6939 21.9909 20.9134 22.2456 21.1427 22.4871C21.6445 23.0162 22.1973 23.2488 22.8323 23.1983H25.2023C25.2073 23.1983 25.2124 23.1981 25.2175 23.1978C25.4536 23.1817 25.6582 23.0459 25.7786 22.8254C25.9279 22.5522 25.9249 22.2037 25.7706 21.893C25.5956 21.5415 25.3685 21.2413 25.1696 20.9941Z" fill="#7572D5"/>
       </g>

      <g id='in'>
          <path style="display: inline; fill-rule: evenodd; clip-rule: evenodd;" d="M116.504,500.219V170.654H6.975v329.564H116.504
		   L116.504,500.219z M61.751,125.674c38.183,0,61.968-25.328,61.968-56.953c-0.722-32.328-23.785-56.941-61.252-56.941
		   C24.994,11.781,0.5,36.394,0.5,68.722c0,31.625,23.772,56.953,60.53,56.953H61.751L61.751,125.674z M177.124,500.219
		   c0,0,1.437-298.643,0-329.564H286.67v47.794h-0.727c14.404-22.49,40.354-55.533,99.44-55.533
		    c72.085,0,126.116,47.103,126.116,148.333v188.971H401.971V323.912c0-44.301-15.848-74.531-55.497-74.531
		    c-30.254,0-48.284,20.38-56.202,40.08c-2.897,7.012-3.602,16.861-3.602,26.711v184.047H177.124L177.124,500.219z" fill="#7572D5"/>
      </g>
      <g id='telegram'>
         <path d="M41.4193 7.30899C41.4193 7.30899 45.3046 5.79399 44.9808 9.47328C44.8729 10.9883 43.9016 16.2908 43.1461 22.0262L40.5559 39.0159C40.5559 39.0159 40.3401 41.5048 38.3974 41.9377C36.4547 42.3705 33.5408 40.4227 33.0011 39.9898C32.5694 39.6652 24.9068 34.7955 22.2086 32.4148C21.4531 31.7655 20.5897 30.4669 22.3165 28.9519L33.6487 18.1305C34.9438 16.8319 36.2389 13.8019 30.8426 17.4812L15.7331 27.7616C15.7331 27.7616 14.0063 28.8437 10.7686 27.8698L3.75342 25.7055C3.75342 25.7055 1.16321 24.0823 5.58815 22.459C16.3807 17.3729 29.6555 12.1786 41.4193 7.30899Z" fill="#7572D5"/> 
      </g>

      <g id='css3'>
          <path d="M33.0508 8.84371L7.94605 8.83771L8.3515 13.7547L27.6381 13.7577L27.1519 18.8502H14.5035L14.9608 23.6742H26.7358L26.0392 30.2806L20.4969 31.7886L14.8663 30.2701L14.508 26.3134H9.53586L10.0877 33.5411L20.4969 36.7341L30.7309 33.8652L33.0493 8.84521L33.0508 8.84371ZM0.498444 0.568726H40.4984L36.86 40.9999L20.4542 45.5687L4.13993 40.9968L0.498444 0.568726Z" fill="#7572D5"/>
      </g>

      <g id='quote'>
        <path d="M9.54167 12.8333C9.07708 12.8333 8.63125 12.9042 8.1875 12.9688C8.33125 12.4854 8.47917 11.9938 8.71667 11.5521C8.95417 10.9104 9.325 10.3542 9.69375 9.79375C10.0021 9.1875 10.5458 8.77709 10.9458 8.25834C11.3646 7.75417 11.9354 7.41875 12.3875 7C12.8312 6.5625 13.4125 6.34375 13.875 6.03542C14.3583 5.75834 14.7792 5.45209 15.2292 5.30625L16.3521 4.84375L17.3396 4.43334L16.3292 0.395836L15.0854 0.695835C14.6875 0.795835 14.2021 0.912502 13.65 1.05209C13.0854 1.15625 12.4833 1.44167 11.8125 1.70209C11.15 1.99792 10.3833 2.19792 9.67083 2.67292C8.95417 3.12709 8.12708 3.50625 7.39791 4.11459C6.69166 4.74167 5.83958 5.28542 5.21041 6.08334C4.52291 6.82917 3.84375 7.6125 3.31666 8.50417C2.70625 9.35417 2.29166 10.2875 1.85416 11.2104C1.45833 12.1333 1.13958 13.0771 0.879164 13.9938C0.385414 15.8313 0.164581 17.5771 0.079164 19.0708C0.0083307 20.5667 0.0499974 21.8104 0.137497 22.7104C0.168747 23.1354 0.227081 23.5479 0.268748 23.8333L0.320831 24.1833L0.374997 24.1708C0.745541 25.9017 1.59855 27.4924 2.83534 28.7587C4.07213 30.0251 5.64217 30.9154 7.36383 31.3267C9.08549 31.738 10.8884 31.6535 12.5641 31.083C14.2397 30.5124 15.7196 29.4792 16.8325 28.1027C17.9454 26.7262 18.6459 25.0628 18.853 23.3048C19.06 21.5468 18.7651 19.7662 18.0024 18.1688C17.2396 16.5714 16.0403 15.2226 14.543 14.2784C13.0458 13.3342 11.3118 12.8332 9.54167 12.8333ZM32.4583 12.8333C31.9937 12.8333 31.5479 12.9042 31.1042 12.9688C31.2479 12.4854 31.3958 11.9938 31.6333 11.5521C31.8708 10.9104 32.2417 10.3542 32.6104 9.79375C32.9188 9.1875 33.4625 8.77709 33.8625 8.25834C34.2812 7.75417 34.8521 7.41875 35.3042 7C35.7479 6.5625 36.3292 6.34375 36.7917 6.03542C37.275 5.75834 37.6958 5.45209 38.1458 5.30625L39.2687 4.84375L40.2562 4.43334L39.2458 0.395836L38.0021 0.695835C37.6042 0.795835 37.1187 0.912502 36.5667 1.05209C36.0021 1.15625 35.4 1.44167 34.7292 1.70209C34.0688 2 33.3 2.19792 32.5875 2.675C31.8708 3.12917 31.0438 3.50834 30.3146 4.11667C29.6083 4.74375 28.7562 5.2875 28.1271 6.08334C27.4396 6.82917 26.7604 7.6125 26.2333 8.50417C25.6229 9.35417 25.2083 10.2875 24.7708 11.2104C24.375 12.1333 24.0562 13.0771 23.7958 13.9938C23.3021 15.8313 23.0812 17.5771 22.9958 19.0708C22.925 20.5667 22.9667 21.8104 23.0542 22.7104C23.0854 23.1354 23.1437 23.5479 23.1854 23.8333L23.2375 24.1833L23.2917 24.1708C23.6622 25.9017 24.5152 27.4924 25.752 28.7587C26.9888 30.0251 28.5588 30.9154 30.2805 31.3267C32.0022 31.738 33.8051 31.6535 35.4807 31.083C37.1564 30.5124 38.6363 29.4792 39.7492 28.1027C40.8621 26.7262 41.5626 25.0628 41.7696 23.3048C41.9766 21.5468 41.6817 19.7662 40.919 18.1688C40.1563 16.5714 38.957 15.2226 37.4597 14.2784C35.9624 13.3342 34.2284 12.8332 32.4583 12.8333Z" fill="#7572D5"/>
        </g>

      
      <g id="st-comp">
         <path d="M31.2591 0.25L30.9888 1.64963C30.5708 4.30212 30.7221 5.06099 31.8682 6.04539L32.9747 6.95461L31.8286 12.0305C31.1438 15.0588 30.3041 17.5968 29.7707 18.4308C29.313 19.1503 28.7796 20.2099 28.6642 20.7791C28.4732 21.4592 27.8245 22.1429 26.8334 22.7478C25.9576 23.2418 24.2385 24.5663 23.0203 25.6294C22.0472 26.4993 21.3769 27.0326 21.0129 27.2617L19.8235 28.196C19.4415 28.8046 19.2253 29.295 19.1424 29.6672C19.0595 30.0503 19.1063 30.3044 19.2289 30.4905C19.3478 30.6695 19.5532 30.7948 19.8343 30.8736C20.1671 30.951 20.5097 30.9788 20.8507 30.9559C21.6222 30.9035 22.3858 30.7691 23.1284 30.555C23.3807 30.487 23.5789 30.4225 23.7519 30.3653C24.0186 30.0395 24.6349 29.4238 25.7269 28.3535C28.6246 25.5149 29.731 23.9613 28.5885 24.3802C28.1669 24.5305 28.3579 24.1511 29.0823 23.3922C30.6104 21.9138 31.4862 19.6801 33.317 12.6748C34.7659 7.14433 34.7659 7.06558 35.8327 7.06558C36.3336 7.06558 37.75 7.15149 37.75 7.15149V0.25H34.4992H31.2591ZM18.4216 12.0806C17.3692 12.0735 15.1058 13.6664 8.33025 19.1611C8.03832 19.8519 8.01309 20.328 8.14644 20.6359C8.23294 20.8471 8.39152 20.9938 8.61137 21.1012C8.82761 21.2086 9.10873 21.2731 9.41867 21.2981C10.035 21.3518 10.763 21.2552 11.3504 21.1406L11.7469 21.0511C11.8826 20.8704 12.0608 20.7254 12.2659 20.6287C12.6839 20.3996 14.4391 18.8103 16.1943 17.1064C19.2829 13.9993 20.0073 12.5961 18.7495 12.1415C18.6463 12.1007 18.5326 12.08 18.4216 12.0806ZM26.336 14.2391C25.4098 14.2642 23.7411 15.3309 20.8831 17.5968C19.4487 18.753 18.5405 19.3759 18.0539 19.5047L16.1654 20.9867C15.4554 22.2753 15.3509 23.0736 15.5383 23.5139C15.5852 23.6225 15.6533 23.7208 15.7387 23.8031C15.8241 23.8855 15.925 23.9502 16.0357 23.9936C16.311 24.1015 16.6046 24.1562 16.9006 24.1546C17.608 24.1471 18.3112 24.0448 18.991 23.8504C19.3453 23.7559 19.6952 23.6461 20.0398 23.521L20.1443 23.4781L20.3353 23.3779C20.6957 22.9161 21.5246 22.0462 22.5626 21.044C25.8423 17.9011 27.5181 15.6674 27.1758 14.8333C27.0208 14.4288 26.7541 14.2248 26.336 14.2391ZM17.5998 18.1051C17.3331 18.1337 16.7349 18.5919 15.6573 19.5298C14.1003 20.8972 12.4028 21.6847 11.8154 21.3339C11.6788 21.3645 11.5419 21.3932 11.4045 21.4198C10.8062 21.5379 10.0602 21.6346 9.39344 21.5809C9.07929 21.562 8.77137 21.4855 8.48523 21.3554C8.21533 21.2328 7.99994 21.0164 7.87975 20.7468C7.7464 20.4247 7.7464 20.0238 7.89777 19.5119L5.55514 21.4234L0.253605 25.7798V32.8424L17.6251 19.2506C17.6217 19.1018 17.6411 18.9533 17.6827 18.8103C17.8161 18.3306 17.8089 18.0872 17.5998 18.1087V18.1051ZM25.0746 20.3925C24.8115 20.3925 24.3718 20.7612 23.669 21.5021C22.714 22.5152 21.2111 23.496 20.4146 23.6964L20.292 23.7609C20.1613 23.8145 20.0291 23.8646 19.8956 23.9112C19.6794 23.9828 19.3982 24.0687 19.0739 24.1546C18.4252 24.33 17.6179 24.4911 16.897 24.4732C16.5572 24.4728 16.2207 24.4072 15.9059 24.2799C15.6093 24.1585 15.3716 23.9275 15.2428 23.6356C15.0338 23.138 15.1167 22.44 15.5744 21.4485L0.25 33.4366V37.75H6.98234L21.2615 26.6103C21.6327 26.2022 22.1914 25.6438 22.9446 24.9457C24.9629 23.0879 25.4206 22.4472 25.4206 21.4986C25.4206 20.7612 25.3377 20.3889 25.0746 20.3889V20.3925ZM28.4732 27.3727L27.2514 28.5826C26.5667 29.2269 25.3449 30.0216 24.5088 30.3617L24.343 30.4333L24.3322 30.4512L24.2961 30.487C24.2637 30.512 24.2493 30.5156 24.2241 30.5263C23.8903 30.6518 23.5512 30.7629 23.2077 30.8592C22.4441 31.08 21.6586 31.218 20.8651 31.2709C20.4899 31.2948 20.1132 31.2622 19.7478 31.1743C19.4307 31.1049 19.1508 30.9213 18.9622 30.6588C18.7892 30.3939 18.7387 30.0395 18.836 29.6028C18.9134 29.2919 19.0284 28.9914 19.1784 28.7079L7.6563 37.75H22.9807L24.8115 35.6667C27.3271 32.7529 28.4732 30.6695 28.4732 28.8869V27.3727Z" fill="#7572D5"/>
        </g>
      <g id='TS'>
        <path d="M0 20V40H40V0H0V20ZM32.235 18.4067C33.2517 18.66 34.025 19.1117 34.7367 19.8483C35.105 20.2417 35.6517 20.9583 35.695 21.1317C35.7083 21.1817 33.9683 22.3483 32.915 23.0033C32.8767 23.0283 32.7233 22.8633 32.5533 22.61C32.0367 21.86 31.4983 21.5367 30.6733 21.48C29.46 21.3967 28.68 22.0317 28.6867 23.0917C28.6756 23.3523 28.7343 23.6112 28.8567 23.8417C29.1233 24.3933 29.62 24.725 31.1733 25.3967C34.0383 26.63 35.2633 27.4417 36.025 28.5967C36.875 29.885 37.0667 31.9433 36.4883 33.4733C35.855 35.1367 34.28 36.2667 32.0633 36.64C31.3783 36.7617 29.7533 36.7433 29.0167 36.61C27.41 36.3233 25.8867 35.53 24.9467 34.4883C24.5783 34.0833 23.86 33.0217 23.905 32.9467C23.9233 32.92 24.0883 32.8183 24.2717 32.7117C24.4517 32.61 25.1233 32.2217 25.7583 31.8533L26.9083 31.1867L27.15 31.5433C27.4867 32.0567 28.2217 32.7617 28.6667 32.9967C29.9433 33.67 31.695 33.575 32.5583 32.8C32.7319 32.6538 32.8694 32.4693 32.9599 32.2612C33.0504 32.053 33.0915 31.8267 33.08 31.6C33.08 31.1367 33.0217 30.9333 32.78 30.5833C32.47 30.14 31.835 29.7667 30.0317 28.9833C27.9683 28.095 27.08 27.5433 26.2667 26.6667C25.759 26.0881 25.3841 25.4055 25.1683 24.6667C25.0167 24.1017 24.9783 22.685 25.0983 22.115C25.5233 20.12 27.0283 18.7317 29.2 18.3183C29.905 18.185 31.5433 18.235 32.235 18.4067ZM22.845 20.0767L22.8583 21.715H17.65V36.5083H13.9667V21.715H8.76333V20.1083C8.76333 19.2183 8.78167 18.475 8.80667 18.4583C8.82667 18.4317 11.995 18.4183 15.835 18.425L22.8267 18.445L22.845 20.0767Z" fill="#7572D5"/>
        </g>
      <g id='instagram'>
         <path fill-rule="evenodd" clip-rule="evenodd" d="M12 18C15.3137 18 18 15.3137 18 12C18 8.68629 15.3137 6 12 6C8.68629 6 6 8.68629 6 12C6 15.3137 8.68629 18 12 18ZM12 16C14.2091 16 16 14.2091 16 12C16 9.79086 14.2091 8 12 8C9.79086 8 8 9.79086 8 12C8 14.2091 9.79086 16 12 16Z" fill="#7572D5"/>
         <path d="M18 5C17.4477 5 17 5.44772 17 6C17 6.55228 17.4477 7 18 7C18.5523 7 19 6.55228 19 6C19 5.44772 18.5523 5 18 5Z" fill="#7572D5"/>
          <path fill-rule="evenodd" clip-rule="evenodd" d="M1.65396 4.27606C1 5.55953 1 7.23969 1 10.6V13.4C1 16.7603 1 18.4405 1.65396 19.7239C2.2292 20.8529 3.14708 21.7708 4.27606 22.346C5.55953 23 7.23969 23 10.6 23H13.4C16.7603 23 18.4405 23 19.7239 22.346C20.8529 21.7708 21.7708 20.8529 22.346 19.7239C23 18.4405 23 16.7603 23 13.4V10.6C23 7.23969 23 5.55953 22.346 4.27606C21.7708 3.14708 20.8529 2.2292 19.7239 1.65396C18.4405 1 16.7603 1 13.4 1H10.6C7.23969 1 5.55953 1 4.27606 1.65396C3.14708 2.2292 2.2292 3.14708 1.65396 4.27606ZM13.4 3H10.6C8.88684 3 7.72225 3.00156 6.82208 3.0751C5.94524 3.14674 5.49684 3.27659 5.18404 3.43597C4.43139 3.81947 3.81947 4.43139 3.43597 5.18404C3.27659 5.49684 3.14674 5.94524 3.0751 6.82208C3.00156 7.72225 3 8.88684 3 10.6V13.4C3 15.1132 3.00156 16.2777 3.0751 17.1779C3.14674 18.0548 3.27659 18.5032 3.43597 18.816C3.81947 19.5686 4.43139 20.1805 5.18404 20.564C5.49684 20.7234 5.94524 20.8533 6.82208 20.9249C7.72225 20.9984 8.88684 21 10.6 21H13.4C15.1132 21 16.2777 20.9984 17.1779 20.9249C18.0548 20.8533 18.5032 20.7234 18.816 20.564C19.5686 20.1805 20.1805 19.5686 20.564 18.816C20.7234 18.5032 20.8533 18.0548 20.9249 17.1779C20.9984 16.2777 21 15.1132 21 13.4V10.6C21 8.88684 20.9984 7.72225 20.9249 6.82208C20.8533 5.94524 20.7234 5.49684 20.564 5.18404C20.1805 4.43139 19.5686 3.81947 18.816 3.43597C18.5032 3.27659 18.0548 3.14674 17.1779 3.0751C16.2777 3.00156 15.1132 3 13.4 3Z" fill="#7572D5"/> 
      </g>

      <g id="facebook">
        <path  d="M14,6h3a1,1,0,0,0,1-1V3a1,1,0,0,0-1-1H14A5,5,0,0,0,9,7v3H7a1,1,0,0,0-1,1v2a1,1,0,0,0,1,1H9v7a1,1,0,0,0,1,1h2a1,1,0,0,0,1-1V14h2.22a1,1,0,0,0,1-.76l.5-2a1,1,0,0,0-1-1.24H13V7A1,1,0,0,1,14,6Z" fill="#7572D5"></path>
      </g>

</svg>


   