<svg width="40" height="40" viewBox="0 0 40 40" fill="#7572D5" xmlns="http://www.w3.org/2000/svg">
    
      <g id="code">
        <path id="Vector" fill-rule="evenodd" clip-rule="evenodd" d="M18.3125 42.0645L27.2623 6.6875L31.4375 7.87241L22.4878 43.3125L18.3125 42.0645Z" fill="#7572D5"/>
        <path id="Vector_2" fill-rule="evenodd" clip-rule="evenodd" d="M13.5025 12.6875L16.5625 15.9278L7.99501 25.0001L16.5625 34.0721L13.5025 37.3125L1.875 25.0001L13.5025 12.6875Z" fill="#7572D5"/>
        <path id="Vector_3" fill-rule="evenodd" clip-rule="evenodd" d="M36.4976 12.6875L33.4375 15.9278L42.0051 25.0001L33.4375 34.0721L36.4976 37.3125L48.125 25.0001L36.4976 12.6875Z" fill="#7572D5"/>
       </g>

       <g id="figma">
          <path id="Vector" d="M17.7083 4.16663C14.2565 4.16663 11.4583 6.96486 11.4583 10.4166C11.4583 13.8684 14.2565 16.6666 17.7083 16.6666H32.2916C35.7435 16.6666 38.5416 13.8684 38.5416 10.4166C38.5416 6.96486 35.7435 4.16663 32.2916 4.16663H17.7083Z" fill="#7572D5"/>
          <path id="Vector_2" d="M32.2917 18.75C28.8398 18.75 26.0417 21.5481 26.0417 25C26.0417 28.4519 28.8398 31.25 32.2917 31.25C35.7436 31.25 38.5417 28.4519 38.5417 25C38.5417 21.5481 35.7436 18.75 32.2917 18.75Z" fill="#7572D5"/>
          <path id="Vector_3" d="M11.4583 25C11.4583 21.5481 14.2565 18.75 17.7083 18.75H23.9583V31.25H17.7083C14.2565 31.25 11.4583 28.4519 11.4583 25Z" fill="#7572D5"/>
          <path id="Vector_4" d="M17.7083 33.3334C14.2565 33.3334 11.4583 36.1315 11.4583 39.5834C11.4583 43.0352 14.2565 45.8334 17.7083 45.8334C21.1602 45.8334 23.9583 43.0352 23.9583 39.5834V33.3334H17.7083Z" fill="#7572D5"/>
       </g>
        <g id="react">
             <path id="Vector" d="M45.8125 21C45.8125 18.0833 42.6875 15.375 37.4792 13.5L36.5417 13.1875V12.7708C37.6875 7.04164 36.8542 2.7708 34.25 1.2083C31.6458 -0.354197 27.7917 1.10414 23.625 4.74997L23 5.37497L22.7917 5.16664H22.5833C18.3125 1.2083 14.1458 -0.145864 11.5417 1.31247C8.9375 2.7708 8.20833 6.8333 9.25 12.1458C9.35958 12.4838 9.4295 12.8333 9.45833 13.1875L8.3125 13.6041C3.20833 15.375 0.1875 18.0833 0.1875 21C0.1875 23.9166 3.52083 26.8333 8.72917 28.7083L9.45833 28.9166C9.32964 29.2854 9.25935 29.672 9.25 30.0625C8.20833 35.2708 9.14583 39.2291 11.5417 40.6875C13.9375 42.1458 18.3125 40.7916 22.4792 37.1458L23.1042 36.625L23.9375 37.4583C26.8542 39.9583 29.7708 41.3125 32.0625 41.3125C32.8708 41.3309 33.6671 41.1137 34.3542 40.6875C36.9583 39.2291 37.8958 34.9583 36.75 29.5416V29.3333C36.705 29.1619 36.6702 28.988 36.6458 28.8125H36.9583C42.4792 26.8333 45.8125 24.0208 45.8125 21ZM42.7917 21C42.7917 22.25 40.5 24.4375 36.0208 25.8958H35.8125C35.2664 24.2202 34.6051 22.5843 33.8333 21C34.5625 19.3333 35.1875 17.6666 35.7083 16.1041L36.5417 16.3125C40.7083 17.7708 42.7917 19.75 42.7917 21ZM25.9167 35.1666L25.0833 34.5416C26.2761 33.2201 27.3891 31.8287 28.4167 30.375L33.7292 29.5416C33.8333 29.75 33.8333 29.9583 33.9375 30.0625C34.3087 31.9492 34.379 33.8829 34.1458 35.7916C33.9995 36.7045 33.5608 37.5452 32.8958 38.1875C31.8542 38.8125 29.0417 37.9791 25.9167 35.1666ZM24.5625 30.5833L23.1042 32.4583L21.4375 30.5833H24.5625ZM10.2917 16C10.8152 17.7174 11.4771 19.3895 12.2708 21C11.4765 22.646 10.8146 24.3528 10.2917 26.1041L9.66667 25.8958C7.84256 25.3201 6.1454 24.4008 4.66667 23.1875C4.28377 22.9455 3.95605 22.6257 3.7048 22.2488C3.45356 21.872 3.2844 21.4465 3.20833 21C3.20833 19.75 5.29167 17.7708 9.25 16.4166L10.2917 16ZM21.4375 11.4166L23 9.6458L24.5625 11.4166H21.4375ZM32.8958 3.81247C34.0417 4.43747 34.6667 7.56247 33.7292 12.1458C33.734 12.2022 33.7272 12.2591 33.7093 12.3128C33.6914 12.3665 33.6627 12.416 33.625 12.4583L28.4167 11.625C27.3891 10.1712 26.2761 8.77988 25.0833 7.4583L25.7083 6.93747C29.0417 4.0208 31.75 3.18747 32.8958 3.81247ZM15.5 14.8541L14.6667 16.2083L13.9375 17.5625C13.625 16.8333 13.4167 16.1041 13.1042 15.2708L15.5 14.8541ZM13.1042 26.7291C13.4167 26 13.625 25.2708 13.9375 24.4375L14.6667 25.7916L15.5 27.1458L13.1042 26.7291ZM30.5 21C29.9699 22.142 29.3788 23.2548 28.7292 24.3333C28.1042 25.4791 27.375 26.5208 26.75 27.5625H19.25C18.5208 26.4166 17.7917 25.375 17.2708 24.3333C16.6161 23.2577 16.0248 22.1447 15.5 21C16.0054 19.8458 16.5974 18.7315 17.2708 17.6666C17.8693 16.5874 18.5301 15.544 19.25 14.5416C21.7457 14.3334 24.2543 14.3334 26.75 14.5416C27.4792 15.5833 28.1042 16.625 28.7292 17.6666C29.4026 18.7315 29.9946 19.8458 30.5 21ZM31.3333 16.2083L30.5 14.8541L32.8958 15.375C32.6639 16.1208 32.3856 16.8514 32.0625 17.5625L31.3333 16.2083ZM30.5 27.1458L31.3333 25.7916L32.0625 24.3333L33 26.7291L30.5 27.1458ZM20.8125 7.35414H20.9167L17.5833 11.5208L12.375 12.3541C12.2708 12.0416 12.2708 11.8333 12.1667 11.5208C11.3333 7.24997 11.9583 4.3333 13 3.81247C13.2766 3.63082 13.61 3.55672 13.9375 3.60414C15.3958 3.60414 17.8958 4.6458 20.7083 7.1458L20.8125 7.35414ZM12.1667 30.5833C12.1857 30.2617 12.256 29.9452 12.375 29.6458L17.6875 30.375C18.689 31.8481 19.8034 33.2412 21.0208 34.5416L20.8125 34.75L20.6042 34.9583C19.184 36.2738 17.5211 37.2999 15.7083 37.9791C15.3107 38.1874 14.875 38.3133 14.4275 38.3491C13.98 38.3849 13.5299 38.3299 13.1042 38.1875C11.9583 37.5625 11.3333 34.75 12.1667 30.5833Z" fill="#7572D5"/>
             <path id="Vector_2" d="M23 16.4166C22.0894 16.3959 21.1932 16.647 20.4259 17.1379C19.6586 17.6287 19.0549 18.3371 18.692 19.1726C18.3291 20.008 18.2233 20.9327 18.3882 21.8285C18.5532 22.7243 18.9812 23.5507 19.6179 24.2022C20.2545 24.8536 21.0709 25.3006 21.9627 25.4861C22.8545 25.6715 23.7813 25.587 24.6249 25.2434C25.4685 24.8998 26.1905 24.3126 26.6989 23.5568C27.2073 22.801 27.4789 21.9108 27.4792 20.9999C27.4795 19.8022 27.0109 18.6519 26.1738 17.7953C25.3366 16.9387 24.1974 16.4438 23 16.4166Z" fill="#7572D5"/>
       </g>

       <g id='vk'>
             <path d="M25.1696 20.9941C24.8038 20.5391 24.3881 20.1314 23.9861 19.737C23.8432 19.5968 23.6954 19.4518 23.5529 19.3076C23.1439 18.8932 23.129 18.7375 23.4529 18.2668C23.6769 17.9424 23.9145 17.6175 24.1442 17.3033C24.3526 17.0183 24.568 16.7235 24.7746 16.4278L24.817 16.367C25.2117 15.801 25.6199 15.2158 25.8372 14.5099C25.8936 14.3236 25.9528 14.0495 25.8174 13.8204C25.682 13.5914 25.4195 13.5215 25.2337 13.4889C25.1418 13.4727 25.0506 13.4705 24.9659 13.4705L22.3809 13.4686L22.3595 13.4684C21.9687 13.4684 21.7053 13.6593 21.5544 14.0519C21.4103 14.4271 21.252 14.8267 21.0714 15.2065C20.7119 15.963 20.2554 16.8342 19.5948 17.5609L19.5669 17.5918C19.4889 17.6787 19.4005 17.777 19.3359 17.777C19.326 17.777 19.3152 17.7751 19.303 17.7711C19.1662 17.7159 19.0744 17.3726 19.0785 17.213C19.0786 17.2108 19.0786 17.2086 19.0786 17.2064L19.0768 14.1105C19.0768 14.0998 19.0761 14.0891 19.0747 14.0785C19.009 13.5752 18.8633 13.2619 18.3129 13.1503C18.2983 13.1472 18.2834 13.1458 18.2685 13.1458H15.5806C15.1427 13.1458 14.9014 13.3302 14.6746 13.6062C14.6133 13.68 14.4859 13.8336 14.5491 14.02C14.6132 14.2091 14.8212 14.2495 14.8889 14.2627C15.2252 14.329 15.4148 14.5421 15.4685 14.9145C15.5622 15.5612 15.5737 16.2514 15.5047 17.0868C15.4855 17.3189 15.4474 17.4982 15.3847 17.6514C15.3701 17.6872 15.3185 17.8038 15.2658 17.8039C15.2491 17.8039 15.2007 17.7971 15.1125 17.7341C14.904 17.5861 14.7514 17.3749 14.5736 17.114C13.9685 16.228 13.4607 15.2519 13.021 14.1294C12.8579 13.7161 12.5533 13.4848 12.1629 13.478C11.7339 13.4712 11.345 13.468 10.9741 13.468C10.5689 13.468 10.1931 13.4719 9.82625 13.4798C9.51217 13.4855 9.29492 13.5831 9.18061 13.77C9.06611 13.957 9.07356 14.2026 9.20276 14.5C10.237 16.8825 11.1748 18.6149 12.2434 20.1171C12.9923 21.1683 13.7433 21.8959 14.6069 22.4068C15.5166 22.9461 16.5362 23.2083 17.7237 23.2083C17.8583 23.2083 17.9975 23.2048 18.1379 23.198C18.8279 23.1632 19.0839 22.9044 19.1163 22.2082C19.1317 21.8525 19.1692 21.4793 19.338 21.1611C19.4445 20.9606 19.5439 20.9606 19.5765 20.9606C19.6394 20.9606 19.7174 20.9906 19.8011 21.0468C19.9513 21.1484 20.0801 21.2845 20.1857 21.4034C20.285 21.5163 20.3833 21.6304 20.4817 21.7446C20.6939 21.9909 20.9134 22.2456 21.1427 22.4871C21.6445 23.0162 22.1973 23.2488 22.8323 23.1983H25.2023C25.2073 23.1983 25.2124 23.1981 25.2175 23.1978C25.4536 23.1817 25.6582 23.0459 25.7786 22.8254C25.9279 22.5522 25.9249 22.2037 25.7706 21.893C25.5956 21.5415 25.3685 21.2413 25.1696 20.9941Z" fill="#7572D5"/>
       </g>

      <g id='in'>
          <path style="display: inline; fill-rule: evenodd; clip-rule: evenodd;" d="M116.504,500.219V170.654H6.975v329.564H116.504
		   L116.504,500.219z M61.751,125.674c38.183,0,61.968-25.328,61.968-56.953c-0.722-32.328-23.785-56.941-61.252-56.941
		   C24.994,11.781,0.5,36.394,0.5,68.722c0,31.625,23.772,56.953,60.53,56.953H61.751L61.751,125.674z M177.124,500.219
		   c0,0,1.437-298.643,0-329.564H286.67v47.794h-0.727c14.404-22.49,40.354-55.533,99.44-55.533
		    c72.085,0,126.116,47.103,126.116,148.333v188.971H401.971V323.912c0-44.301-15.848-74.531-55.497-74.531
		    c-30.254,0-48.284,20.38-56.202,40.08c-2.897,7.012-3.602,16.861-3.602,26.711v184.047H177.124L177.124,500.219z" fill="#7572D5"/>
      </g>
      <g id='telegram'>
         <path d="M41.4193 7.30899C41.4193 7.30899 45.3046 5.79399 44.9808 9.47328C44.8729 10.9883 43.9016 16.2908 43.1461 22.0262L40.5559 39.0159C40.5559 39.0159 40.3401 41.5048 38.3974 41.9377C36.4547 42.3705 33.5408 40.4227 33.0011 39.9898C32.5694 39.6652 24.9068 34.7955 22.2086 32.4148C21.4531 31.7655 20.5897 30.4669 22.3165 28.9519L33.6487 18.1305C34.9438 16.8319 36.2389 13.8019 30.8426 17.4812L15.7331 27.7616C15.7331 27.7616 14.0063 28.8437 10.7686 27.8698L3.75342 25.7055C3.75342 25.7055 1.16321 24.0823 5.58815 22.459C16.3807 17.3729 29.6555 12.1786 41.4193 7.30899Z" fill="#7572D5"/>
         
      </g>
      <g id='css3'>
         <path d="M24.235 6.519l-16.47-0.004 0.266 3.277 12.653 0.002-0.319 3.394h-8.298l0.3 3.215h7.725l-0.457 4.403-3.636 1.005-3.694-1.012-0.235-2.637h-3.262l0.362 4.817 6.829 2.128 6.714-1.912 1.521-16.675zM2.879 1.004h26.242l-2.387 26.946-10.763 3.045-10.703-3.047z"></path fill="#7572D5">
      </g>
      <g id='html5'>
         <path d="M19.4350881,7485 L19.4279481,7485 L10.8119794,7485 L11.0180201,7487 L19.2300674,7487 C19.109707,7488.752 18.7455658,7492.464 18.6119454,7494.153 L13.99949,7495.451 L13.99949,7495.455 L13.98929,7495.46 L9.37377458,7493.836 L9.05757353,7490 L11.3199411,7490 L11.4800816,7492.063 L13.99337,7493 L13.99949,7493 L16.5086984,7492.1 L16.7667592,7489 L8.95659319,7489 C8.91885306,7488.599 8.43333144,7483.392 8.34867116,7483 L19.6370488,7483 C19.5738086,7483.66 19.5095484,7484.338 19.4350881,7485 L19.4350881,7485 Z M5,7479 L6.63812546,7497.148 L13.98929,7499 L21.3598345,7497.111 L23,7479 L5,7479 Z" fill="#7572D5"/>
      </g>
      <g id='react'> 
         <path d="M18.6789 15.9759C18.6789 14.5415 17.4796 13.3785 16 13.3785C14.5206 13.3785 13.3211 14.5415 13.3211 15.9759C13.3211 17.4105 14.5206 18.5734 16 18.5734C17.4796 18.5734 18.6789 17.4105 18.6789 15.9759Z" fill="#7572D5"/>
         <path fill-rule="evenodd" clip-rule="evenodd" d="M24.7004 11.1537C25.2661 8.92478 25.9772 4.79148 23.4704 3.39016C20.9753 1.99495 17.7284 4.66843 16.0139 6.27318C14.3044 4.68442 10.9663 2.02237 8.46163 3.42814C5.96751 4.82803 6.73664 8.8928 7.3149 11.1357C4.98831 11.7764 1 13.1564 1 15.9759C1 18.7874 4.98416 20.2888 7.29698 20.9289C6.71658 23.1842 5.98596 27.1909 8.48327 28.5877C10.9973 29.9932 14.325 27.3945 16.0554 25.7722C17.7809 27.3864 20.9966 30.0021 23.4922 28.6014C25.9956 27.1963 25.3436 23.1184 24.7653 20.8625C27.0073 20.221 31 18.7523 31 15.9759C31 13.1835 26.9903 11.7923 24.7004 11.1537ZM24.4162 19.667C24.0365 18.5016 23.524 17.2623 22.8971 15.9821C23.4955 14.7321 23.9881 13.5088 24.3572 12.3509C26.0359 12.8228 29.7185 13.9013 29.7185 15.9759C29.7185 18.07 26.1846 19.1587 24.4162 19.667ZM22.85 27.526C20.988 28.571 18.2221 26.0696 16.9478 24.8809C17.7932 23.9844 18.638 22.9422 19.4625 21.7849C20.9129 21.6602 22.283 21.4562 23.5256 21.1777C23.9326 22.7734 24.7202 26.4763 22.85 27.526ZM9.12362 27.5111C7.26143 26.47 8.11258 22.8946 8.53957 21.2333C9.76834 21.4969 11.1286 21.6865 12.5824 21.8008C13.4123 22.9332 14.2816 23.9741 15.1576 24.8857C14.0753 25.9008 10.9945 28.557 9.12362 27.5111ZM2.28149 15.9759C2.28149 13.874 5.94207 12.8033 7.65904 12.3326C8.03451 13.5165 8.52695 14.7544 9.12123 16.0062C8.51925 17.2766 8.01977 18.5341 7.64085 19.732C6.00369 19.2776 2.28149 18.0791 2.28149 15.9759ZM9.1037 4.50354C10.9735 3.45416 13.8747 6.00983 15.1159 7.16013C14.2444 8.06754 13.3831 9.1006 12.5603 10.2265C11.1494 10.3533 9.79875 10.5569 8.55709 10.8297C8.09125 9.02071 7.23592 5.55179 9.1037 4.50354ZM20.3793 11.5771C21.3365 11.6942 22.2536 11.85 23.1147 12.0406C22.8562 12.844 22.534 13.6841 22.1545 14.5453C21.6044 13.5333 21.0139 12.5416 20.3793 11.5771ZM16.0143 8.0481C16.6054 8.66897 17.1974 9.3623 17.7798 10.1145C16.5985 10.0603 15.4153 10.0601 14.234 10.1137C14.8169 9.36848 15.414 8.67618 16.0143 8.0481ZM9.8565 14.5444C9.48329 13.6862 9.16398 12.8424 8.90322 12.0275C9.75918 11.8418 10.672 11.69 11.623 11.5748C10.9866 12.5372 10.3971 13.5285 9.8565 14.5444ZM11.6503 20.4657C10.6679 20.3594 9.74126 20.2153 8.88556 20.0347C9.15044 19.2055 9.47678 18.3435 9.85796 17.4668C10.406 18.4933 11.0045 19.4942 11.6503 20.4657ZM16.0498 23.9915C15.4424 23.356 14.8365 22.6531 14.2448 21.8971C15.4328 21.9423 16.6231 21.9424 17.811 21.891C17.2268 22.6608 16.6369 23.3647 16.0498 23.9915ZM22.1667 17.4222C22.5677 18.3084 22.9057 19.1657 23.1742 19.9809C22.3043 20.1734 21.3652 20.3284 20.3757 20.4435C21.015 19.4607 21.6149 18.4536 22.1667 17.4222ZM18.7473 20.5941C16.9301 20.72 15.1016 20.7186 13.2838 20.6044C12.2509 19.1415 11.3314 17.603 10.5377 16.0058C11.3276 14.4119 12.2404 12.8764 13.2684 11.4158C15.0875 11.2825 16.9178 11.2821 18.7369 11.4166C19.7561 12.8771 20.6675 14.4086 21.4757 15.9881C20.6771 17.5812 19.7595 19.1198 18.7473 20.5941ZM22.8303 4.4666C24.7006 5.51254 23.8681 9.22726 23.4595 10.8426C22.2149 10.5641 20.8633 10.3569 19.4483 10.2281C18.6239 9.09004 17.7698 8.05518 16.9124 7.15949C18.1695 5.98441 20.9781 3.43089 22.8303 4.4666Z" fill="#7572D5"/>
      </g>

      <g id='quote'>
        <path d="M9.54167 12.8333C9.07708 12.8333 8.63125 12.9042 8.1875 12.9688C8.33125 12.4854 8.47917 11.9938 8.71667 11.5521C8.95417 10.9104 9.325 10.3542 9.69375 9.79375C10.0021 9.1875 10.5458 8.77709 10.9458 8.25834C11.3646 7.75417 11.9354 7.41875 12.3875 7C12.8312 6.5625 13.4125 6.34375 13.875 6.03542C14.3583 5.75834 14.7792 5.45209 15.2292 5.30625L16.3521 4.84375L17.3396 4.43334L16.3292 0.395836L15.0854 0.695835C14.6875 0.795835 14.2021 0.912502 13.65 1.05209C13.0854 1.15625 12.4833 1.44167 11.8125 1.70209C11.15 1.99792 10.3833 2.19792 9.67083 2.67292C8.95417 3.12709 8.12708 3.50625 7.39791 4.11459C6.69166 4.74167 5.83958 5.28542 5.21041 6.08334C4.52291 6.82917 3.84375 7.6125 3.31666 8.50417C2.70625 9.35417 2.29166 10.2875 1.85416 11.2104C1.45833 12.1333 1.13958 13.0771 0.879164 13.9938C0.385414 15.8313 0.164581 17.5771 0.079164 19.0708C0.0083307 20.5667 0.0499974 21.8104 0.137497 22.7104C0.168747 23.1354 0.227081 23.5479 0.268748 23.8333L0.320831 24.1833L0.374997 24.1708C0.745541 25.9017 1.59855 27.4924 2.83534 28.7587C4.07213 30.0251 5.64217 30.9154 7.36383 31.3267C9.08549 31.738 10.8884 31.6535 12.5641 31.083C14.2397 30.5124 15.7196 29.4792 16.8325 28.1027C17.9454 26.7262 18.6459 25.0628 18.853 23.3048C19.06 21.5468 18.7651 19.7662 18.0024 18.1688C17.2396 16.5714 16.0403 15.2226 14.543 14.2784C13.0458 13.3342 11.3118 12.8332 9.54167 12.8333ZM32.4583 12.8333C31.9937 12.8333 31.5479 12.9042 31.1042 12.9688C31.2479 12.4854 31.3958 11.9938 31.6333 11.5521C31.8708 10.9104 32.2417 10.3542 32.6104 9.79375C32.9188 9.1875 33.4625 8.77709 33.8625 8.25834C34.2812 7.75417 34.8521 7.41875 35.3042 7C35.7479 6.5625 36.3292 6.34375 36.7917 6.03542C37.275 5.75834 37.6958 5.45209 38.1458 5.30625L39.2687 4.84375L40.2562 4.43334L39.2458 0.395836L38.0021 0.695835C37.6042 0.795835 37.1187 0.912502 36.5667 1.05209C36.0021 1.15625 35.4 1.44167 34.7292 1.70209C34.0688 2 33.3 2.19792 32.5875 2.675C31.8708 3.12917 31.0438 3.50834 30.3146 4.11667C29.6083 4.74375 28.7562 5.2875 28.1271 6.08334C27.4396 6.82917 26.7604 7.6125 26.2333 8.50417C25.6229 9.35417 25.2083 10.2875 24.7708 11.2104C24.375 12.1333 24.0562 13.0771 23.7958 13.9938C23.3021 15.8313 23.0812 17.5771 22.9958 19.0708C22.925 20.5667 22.9667 21.8104 23.0542 22.7104C23.0854 23.1354 23.1437 23.5479 23.1854 23.8333L23.2375 24.1833L23.2917 24.1708C23.6622 25.9017 24.5152 27.4924 25.752 28.7587C26.9888 30.0251 28.5588 30.9154 30.2805 31.3267C32.0022 31.738 33.8051 31.6535 35.4807 31.083C37.1564 30.5124 38.6363 29.4792 39.7492 28.1027C40.8621 26.7262 41.5626 25.0628 41.7696 23.3048C41.9766 21.5468 41.6817 19.7662 40.919 18.1688C40.1563 16.5714 38.957 15.2226 37.4597 14.2784C35.9624 13.3342 34.2284 12.8332 32.4583 12.8333Z" fill="#7572D5"/>
        </g>

      
      <g id="st-comp">
           <path d="M16.214 6.762l-.075.391c-.116.741-.074.953.244 1.228l.307.254-.318 1.418c-.19.846-.423 1.555-.571 1.788-.127.201-.275.497-.307.656-.053.19-.233.381-.508.55-.243.138-.72.508-1.058.805-.27.243-.456.392-.557.456l-.33.261c-.106.17-.166.307-.189.411-.023.107-.01.178.024.23.033.05.09.085.168.107a.954.954 0 00.282.023 3 3 0 00.632-.112c.07-.019.125-.037.173-.053.074-.091.245-.263.548-.562.804-.793 1.111-1.227.794-1.11-.117.042-.064-.064.137-.276.424-.413.667-1.037 1.175-2.994.402-1.545.402-1.567.698-1.567.139 0 .532.024.532.024V6.762h-.902zm3.839 3.165c-.064 0-.17.096-.233.202-.116.19.021.306 1.767 1.396 1.037.657 1.873 1.217 1.852 1.26-.021.031-.868.582-1.883 1.217-1.842 1.142-1.852 1.153-1.683 1.386.212.275 0 .37 2.391-1.122L24 13.155v-.836l-1.937-1.196c-1.047-.656-1.957-1.185-2.01-1.196zm-16.085.117c-.053 0-.963.54-2.01 1.185L0 12.425v.836l1.947 1.217c1.08.666 1.99 1.217 2.032 1.217.042 0 .127-.096.212-.212.127-.201.02-.286-1.768-1.418C.72 12.996.54 12.848.71 12.732c.106-.074.91-.572 1.778-1.111 1.979-1.217 1.873-1.133 1.714-1.387-.063-.105-.17-.2-.233-.19zm8.684.023c-.292-.002-.92.443-2.8 1.978-.081.193-.088.326-.051.412.024.059.068.1.129.13.06.03.138.048.224.055.171.015.373-.012.536-.044l.11-.025a.386.386 0 01.144-.118c.116-.064.603-.508 1.09-.984.857-.868 1.058-1.26.709-1.387a.24.24 0 00-.09-.017zm2.196.603c-.257.007-.72.305-1.513.938-.398.323-.65.497-.785.533l-.524.414c-.197.36-.226.583-.174.706a.25.25 0 00.138.134.644.644 0 00.24.045 2.18 2.18 0 00.58-.085 3.466 3.466 0 00.291-.092l.029-.012.053-.028c.1-.129.33-.372.618-.652.91-.878 1.375-1.502 1.28-1.735-.043-.113-.117-.17-.233-.166zm-2.424 1.08c-.074.008-.24.136-.539.398-.432.382-.903.602-1.066.504a3.97 3.97 0 01-.114.024c-.166.033-.373.06-.558.045a.708.708 0 01-.252-.063.337.337 0 01-.168-.17c-.037-.09-.037-.202.005-.345l-.65.534-1.471 1.217V15.867l4.82-3.797a.41.41 0 01.016-.123c.037-.134.035-.202-.023-.196zm2.074.639c-.073 0-.195.103-.39.31-.265.283-.682.557-.903.613l-.034.018a2.191 2.191 0 01-.11.042c-.06.02-.138.044-.228.068-.18.049-.404.094-.604.089a.732.732 0 01-.275-.054.344.344 0 01-.184-.18c-.058-.139-.035-.334.092-.611L7.61 16.033v1.205h1.868l3.962-3.112c.103-.114.258-.27.467-.465.56-.519.687-.698.687-.963 0-.206-.023-.31-.096-.31zm.943 1.95l-.339.338c-.19.18-.529.402-.761.497l-.046.02-.003.005-.01.01c-.009.007-.013.008-.02.011a3.432 3.432 0 01-.282.093 3.058 3.058 0 01-.65.115 1.035 1.035 0 01-.31-.027.364.364 0 01-.218-.144c-.048-.074-.062-.173-.035-.295a1.11 1.11 0 01.095-.25l-3.197 2.526h4.252l.508-.582c.698-.814 1.016-1.396 1.016-1.894z" fill="#7572D5"/>
        </g>
      <g id='TS'>
          <path d="M18.245,23.759v3.068a6.492,6.492,0,0,0,1.764.575,11.56,11.56,0,0,0,2.146.192,9.968,9.968,0,0,0,2.088-.211,5.11,5.11,0,0,0,1.735-.7,3.542,3.542,0,0,0,1.181-1.266,4.469,4.469,0,0,0,.186-3.394,3.409,3.409,0,0,0-.717-1.117,5.236,5.236,0,0,0-1.123-.877,12.027,12.027,0,0,0-1.477-.734q-.6-.249-1.08-.484a5.5,5.5,0,0,1-.813-.479,2.089,2.089,0,0,1-.516-.518,1.091,1.091,0,0,1-.181-.618,1.039,1.039,0,0,1,.162-.571,1.4,1.4,0,0,1,.459-.436,2.439,2.439,0,0,1,.726-.283,4.211,4.211,0,0,1,.956-.1,5.942,5.942,0,0,1,.808.058,6.292,6.292,0,0,1,.856.177,5.994,5.994,0,0,1,.836.3,4.657,4.657,0,0,1,.751.422V13.9a7.509,7.509,0,0,0-1.525-.4,12.426,12.426,0,0,0-1.9-.129,8.767,8.767,0,0,0-2.064.235,5.239,5.239,0,0,0-1.716.733,3.655,3.655,0,0,0-1.171,1.271,3.731,3.731,0,0,0-.431,1.845,3.588,3.588,0,0,0,.789,2.34,6,6,0,0,0,2.395,1.639q.63.26,1.175.509a6.458,6.458,0,0,1,.942.517,2.463,2.463,0,0,1,.626.585,1.2,1.2,0,0,1,.23.719,1.1,1.1,0,0,1-.144.552,1.269,1.269,0,0,1-.435.441,2.381,2.381,0,0,1-.726.292,4.377,4.377,0,0,1-1.018.105,5.773,5.773,0,0,1-1.969-.35A5.874,5.874,0,0,1,18.245,23.759Zm-5.154-7.638h4V13.594H5.938v2.527H9.92V27.375h3.171Z" fill="#7572D5"/>
        </g>
      <g id='instagram'>
         <path fill-rule="evenodd" clip-rule="evenodd" d="M12 18C15.3137 18 18 15.3137 18 12C18 8.68629 15.3137 6 12 6C8.68629 6 6 8.68629 6 12C6 15.3137 8.68629 18 12 18ZM12 16C14.2091 16 16 14.2091 16 12C16 9.79086 14.2091 8 12 8C9.79086 8 8 9.79086 8 12C8 14.2091 9.79086 16 12 16Z" fill="#7572D5"/>
         <path d="M18 5C17.4477 5 17 5.44772 17 6C17 6.55228 17.4477 7 18 7C18.5523 7 19 6.55228 19 6C19 5.44772 18.5523 5 18 5Z" fill="#7572D5"/>
          <path fill-rule="evenodd" clip-rule="evenodd" d="M1.65396 4.27606C1 5.55953 1 7.23969 1 10.6V13.4C1 16.7603 1 18.4405 1.65396 19.7239C2.2292 20.8529 3.14708 21.7708 4.27606 22.346C5.55953 23 7.23969 23 10.6 23H13.4C16.7603 23 18.4405 23 19.7239 22.346C20.8529 21.7708 21.7708 20.8529 22.346 19.7239C23 18.4405 23 16.7603 23 13.4V10.6C23 7.23969 23 5.55953 22.346 4.27606C21.7708 3.14708 20.8529 2.2292 19.7239 1.65396C18.4405 1 16.7603 1 13.4 1H10.6C7.23969 1 5.55953 1 4.27606 1.65396C3.14708 2.2292 2.2292 3.14708 1.65396 4.27606ZM13.4 3H10.6C8.88684 3 7.72225 3.00156 6.82208 3.0751C5.94524 3.14674 5.49684 3.27659 5.18404 3.43597C4.43139 3.81947 3.81947 4.43139 3.43597 5.18404C3.27659 5.49684 3.14674 5.94524 3.0751 6.82208C3.00156 7.72225 3 8.88684 3 10.6V13.4C3 15.1132 3.00156 16.2777 3.0751 17.1779C3.14674 18.0548 3.27659 18.5032 3.43597 18.816C3.81947 19.5686 4.43139 20.1805 5.18404 20.564C5.49684 20.7234 5.94524 20.8533 6.82208 20.9249C7.72225 20.9984 8.88684 21 10.6 21H13.4C15.1132 21 16.2777 20.9984 17.1779 20.9249C18.0548 20.8533 18.5032 20.7234 18.816 20.564C19.5686 20.1805 20.1805 19.5686 20.564 18.816C20.7234 18.5032 20.8533 18.0548 20.9249 17.1779C20.9984 16.2777 21 15.1132 21 13.4V10.6C21 8.88684 20.9984 7.72225 20.9249 6.82208C20.8533 5.94524 20.7234 5.49684 20.564 5.18404C20.1805 4.43139 19.5686 3.81947 18.816 3.43597C18.5032 3.27659 18.0548 3.14674 17.1779 3.0751C16.2777 3.00156 15.1132 3 13.4 3Z" fill="#7572D5"/> 
      </g>

      <g id="facebook">
        <path  d="M14,6h3a1,1,0,0,0,1-1V3a1,1,0,0,0-1-1H14A5,5,0,0,0,9,7v3H7a1,1,0,0,0-1,1v2a1,1,0,0,0,1,1H9v7a1,1,0,0,0,1,1h2a1,1,0,0,0,1-1V14h2.22a1,1,0,0,0,1-.76l.5-2a1,1,0,0,0-1-1.24H13V7A1,1,0,0,1,14,6Z" fill="#7572D5"></path>
      </g>

</svg>


   